<svg version="1.1" id="Layer_1" xmlns="http://www.w3.org/2000/svg" xmlns:xlink="http://www.w3.org/1999/xlink" x="0px" y="0px"
	 width="100%" viewBox="0 0 1024 1024" enable-background="new 0 0 1024 1024" xml:space="preserve">
<path fill="#000000" opacity="1.000000" stroke="none" 
	d="
M479.841125,752.888672 
	C483.991211,745.124390 488.298553,743.635132 495.845276,747.029053 
	C497.194092,747.635681 497.961395,748.614624 498.168549,750.028503 
	C500.650421,766.969788 503.126892,783.911865 505.564362,800.859558 
	C505.649658,801.452637 505.314545,802.106140 505.132202,802.925476 
	C501.307678,803.207153 497.802307,802.240051 494.307922,801.350708 
	C491.793182,800.710693 491.947540,798.466797 491.676331,796.504822 
	C490.333160,786.786682 488.978180,777.070190 487.602142,767.356628 
	C487.515961,766.748169 487.215332,766.170166 486.702576,764.658508 
	C481.540222,774.122803 476.799194,782.854980 472.014832,791.563232 
	C470.470490,794.374084 469.690674,797.748230 464.855255,796.744873 
	C460.161896,795.771118 456.437988,795.109558 455.982758,789.010559 
	C455.390411,781.073792 453.830170,773.210083 452.717102,765.310669 
	C452.444336,763.374817 452.317291,761.415344 450.964142,758.975525 
	C446.397369,767.395142 442.089508,775.396301 437.725769,783.366943 
	C432.755707,792.445129 432.249542,792.593506 422.329773,788.462952 
	C421.733124,787.001892 422.651733,785.906677 423.260162,784.757935 
	C430.588531,770.922363 438.268555,757.258362 445.112274,743.187439 
	C448.165375,736.910156 452.430267,739.901062 456.512695,740.072021 
	C460.729645,740.248535 461.868134,743.006531 462.351135,746.712402 
	C463.570526,756.067688 465.046722,765.389404 467.542297,775.088745 
	C471.587189,767.798767 475.632050,760.508850 479.841125,752.888672 
z"/>
<path fill="#000000" opacity="1.000000" stroke="none" 
	d="
M586.415649,282.197693 
	C583.669189,288.517853 580.210022,283.783508 577.220947,283.116302 
	C574.228455,282.448273 573.427979,280.493439 574.696899,277.441681 
	C580.575623,263.304138 586.291260,249.098816 592.115723,234.938538 
	C592.719727,233.470169 593.357605,231.345398 595.574097,232.337494 
	C598.993958,233.868179 603.581604,233.743500 604.337646,239.150879 
	C605.785095,249.503494 607.622559,259.801636 609.310242,270.120361 
	C609.387573,270.593231 609.583618,271.046661 609.959656,272.282379 
	C615.114502,268.527588 620.044373,264.995117 624.908508,261.374420 
	C628.514160,258.690430 632.005554,255.853104 635.600769,253.154602 
	C639.445435,250.268784 644.121094,250.553604 647.864624,253.538132 
	C649.696960,254.998917 648.955017,256.450317 648.341248,257.974365 
	C642.559082,272.331329 636.727783,286.668488 630.982544,301.040131 
	C629.940796,303.646027 628.376404,304.220123 625.925110,303.080688 
	C624.568481,302.450134 623.180359,301.861847 621.758606,301.402252 
	C618.698547,300.413116 618.079651,298.772369 619.403076,295.727783 
	C622.434509,288.753876 625.131775,281.634735 628.342163,273.633972 
	C624.081787,274.489990 622.104553,277.059784 619.676453,278.744812 
	C616.122559,281.211060 612.776550,283.974579 609.265198,286.504852 
	C604.831238,289.699921 600.735657,288.023712 599.809998,282.637421 
	C598.556580,275.344360 597.399719,268.034698 595.251709,260.696442 
	C592.350037,267.748505 589.448364,274.800568 586.415649,282.197693 
z"/>
<path fill="#000000" opacity="1.000000" stroke="none" 
	d="
M277.297913,488.143372 
	C276.778259,491.280548 274.911072,491.468567 272.734680,491.056702 
	C257.718475,488.215118 242.712296,485.319244 227.680969,482.560272 
	C224.553787,481.986267 223.544754,480.786621 224.293961,477.483429 
	C226.275833,468.745575 226.882065,459.697510 229.755249,451.163269 
	C233.768661,439.242188 243.639038,432.403900 255.852112,432.709351 
	C267.624390,433.003784 277.558868,440.500916 280.846710,451.443542 
	C282.571167,457.182922 282.385620,462.915863 281.214233,468.692993 
	C279.928345,475.034973 278.642853,481.377014 277.297913,488.143372 
M248.870346,447.166870 
	C240.357758,450.279297 239.535858,457.974213 237.788330,465.294373 
	C236.879303,469.102081 237.792664,470.908295 241.652756,471.550903 
	C247.222061,472.478027 252.746170,473.673279 258.300354,474.695435 
	C268.068237,476.493103 268.071655,476.474457 269.875397,466.744019 
	C272.471069,452.741486 263.771912,444.223236 248.870346,447.166870 
z"/>
<path fill="#000000" opacity="1.000000" stroke="none" 
	d="
M283.291565,648.269409 
	C297.835876,636.732727 313.139282,638.429016 324.552185,652.685608 
	C329.017609,658.263672 333.154175,664.105652 337.644165,669.662903 
	C339.650391,672.146118 339.649384,673.841492 337.033844,675.797852 
	C324.788849,684.957336 312.578796,694.164612 300.439240,703.463196 
	C298.102448,705.253052 296.485168,705.333984 294.690033,702.841492 
	C289.834259,696.099304 284.456268,689.697876 280.024536,682.693604 
	C272.272430,670.441528 273.554749,658.673828 283.291565,648.269409 
M305.843536,653.613647 
	C298.557739,652.809021 293.173462,656.115601 289.458893,661.956909 
	C285.686188,667.889709 287.245056,673.782410 290.955383,679.244141 
	C292.542694,681.580811 294.337067,683.776855 296.035950,686.037781 
	C297.093628,687.445374 298.382507,687.925842 299.889374,686.800903 
	C307.552643,681.079712 315.194672,675.330017 322.997467,669.475220 
	C318.153595,662.717285 314.785095,655.757263 305.843536,653.613647 
z"/>
<path fill="#000000" opacity="1.000000" stroke="none" 
	d="
M590.930420,777.269287 
	C585.618896,779.482666 580.616577,779.992065 575.539917,777.931519 
	C573.941833,781.081665 567.925720,784.166870 564.668091,783.607666 
	C563.518188,783.410278 562.881592,782.766174 562.626038,781.727905 
	C559.456726,768.849304 554.478699,756.387207 553.604309,742.980225 
	C553.073303,734.838806 557.144836,729.400513 564.063354,725.792053 
	C571.385498,721.973206 579.231262,720.977173 587.335449,721.959412 
	C590.006226,722.283142 593.019287,722.875610 591.913574,726.798035 
	C591.052185,729.853821 591.582214,734.209839 585.719299,732.674194 
	C581.567871,731.586914 577.131775,731.953125 572.975403,733.646301 
	C567.109436,736.035889 565.578979,738.775940 566.676880,745.885437 
	C572.664917,739.471130 579.927979,737.520142 588.061707,739.094849 
	C593.154419,740.080872 597.283569,742.805603 600.047546,747.335754 
	C606.910339,758.583862 603.321960,770.792236 590.930420,777.269287 
M575.694519,768.172852 
	C577.928833,769.081909 580.258789,769.042786 582.538269,768.583862 
	C588.269714,767.429932 591.815857,761.870300 590.144836,756.772888 
	C588.755310,752.533813 585.870117,750.096497 581.333496,750.110901 
	C576.745789,750.125488 572.669617,751.507568 570.960754,756.229370 
	C569.227600,761.018311 570.668518,764.990784 575.694519,768.172852 
z"/>
<path fill="#000000" opacity="1.000000" stroke="none" 
	d="
M387.707031,721.668579 
	C379.061279,733.708801 370.530823,745.392700 362.257935,757.256104 
	C360.068817,760.395325 358.225983,761.354126 355.194061,758.550476 
	C352.523010,756.080627 347.330078,754.830444 351.823090,749.514404 
	C354.473602,746.378357 356.577667,742.780457 359.296570,738.857666 
	C350.077911,737.895691 343.966431,733.410706 340.526123,725.486206 
	C336.445129,716.085938 341.386963,703.554077 351.163147,698.309875 
	C360.458771,693.323486 372.807678,696.518738 378.312225,705.489685 
	C379.553253,707.512268 380.346802,708.678101 383.334473,708.739014 
	C386.456085,708.802612 389.642212,711.529236 391.236755,714.276123 
	C392.938141,717.207092 389.067749,718.967590 387.707031,721.668579 
M352.329285,721.814331 
	C354.877838,727.484009 358.308167,729.623718 363.399384,728.719666 
	C367.662933,727.962585 371.960266,723.301392 372.388184,718.573608 
	C372.815094,713.856323 370.399384,710.616272 366.196564,708.846802 
	C359.058014,705.841309 352.164032,711.906555 352.329285,721.814331 
z"/>
<path fill="#000000" opacity="1.000000" stroke="none" 
	d="
M374.632935,320.631714 
	C367.316864,327.579254 359.127228,331.870789 349.191833,330.770691 
	C337.240021,329.447388 327.257446,320.087463 324.821411,308.769714 
	C322.337311,297.228333 328.193329,284.666138 339.374420,277.802582 
	C344.112427,274.894165 349.218781,272.844086 354.865906,272.788055 
	C357.162811,272.765289 360.738586,272.077148 360.110535,276.037720 
	C359.585541,279.348877 361.207703,284.602325 355.317841,284.883087 
	C349.628723,285.154236 344.949219,287.079987 341.334961,291.458374 
	C337.147827,296.530701 335.999878,302.122162 338.932922,308.190735 
	C341.722015,313.961456 345.918335,317.817780 352.762848,318.053192 
	C359.764740,318.293976 364.873260,315.146362 368.764862,309.588837 
	C369.778595,308.141144 369.613617,306.831146 368.532928,305.495056 
	C367.276245,303.941345 366.107727,302.316650 364.867767,300.749023 
	C360.598297,295.351471 362.193268,290.633301 368.890564,288.566711 
	C370.594269,288.040924 371.372559,288.949677 372.198578,290.019897 
	C375.455048,294.239288 378.650085,298.506989 381.961884,302.682281 
	C383.673859,304.840607 383.314758,306.914612 382.330872,309.210632 
	C380.533112,313.405945 377.950439,317.044067 374.632935,320.631714 
z"/>
<path fill="#000000" opacity="1.000000" stroke="none" 
	d="
M279.801025,366.167664 
	C278.138458,363.444153 276.633209,361.049927 275.157166,358.637787 
	C270.594086,351.180634 270.866730,349.059052 276.938324,342.773102 
	C277.964905,341.710297 278.948303,341.211914 280.433929,341.485596 
	C298.542877,344.821533 316.710754,347.852631 334.652893,352.043823 
	C334.786133,352.074921 334.878937,352.279053 335.209290,352.643921 
	C334.183838,356.259033 331.526520,359.050598 329.212799,361.961456 
	C327.356598,364.296661 324.688416,362.771881 322.702698,362.085510 
	C318.116364,360.500214 315.180786,361.741974 312.774323,365.871338 
	C310.435486,369.884674 307.660065,373.656494 304.908966,377.411774 
	C303.294403,379.615662 303.408112,381.368500 304.865814,383.703094 
	C309.817688,391.633728 309.259277,394.209106 301.062744,401.295929 
	C293.981384,389.609344 286.976532,378.049011 279.801025,366.167664 
M301.863708,363.410278 
	C302.694580,362.033569 304.141663,360.964081 304.029144,358.582550 
	C298.520203,357.261078 293.017456,355.481049 286.604675,355.078979 
	C290.093475,360.461182 292.681763,365.618042 296.845490,370.295715 
	C298.570984,367.930725 300.013641,365.953430 301.863708,363.410278 
z"/>
<path fill="#000000" opacity="1.000000" stroke="none" 
	d="
M276.731354,432.353729 
	C274.156372,429.618439 276.155273,428.358032 277.878052,426.932495 
	C282.627930,423.002075 285.960907,418.063965 287.472198,412.100830 
	C288.106415,409.598297 288.633179,406.536957 285.622223,404.979156 
	C282.740112,403.488007 280.901855,405.793732 279.303192,407.622162 
	C275.912659,411.499969 272.903961,415.719788 269.418823,419.504791 
	C263.782349,425.626190 258.452820,426.812042 252.057449,423.828339 
	C245.787216,420.902954 242.109222,414.259125 242.948425,407.016846 
	C243.893478,398.861084 247.030502,391.621765 252.537582,385.484497 
	C257.042542,380.464050 257.654022,380.463409 262.191956,385.237305 
	C263.089752,386.181793 263.870178,387.237915 264.829376,388.392670 
	C262.413055,391.361298 259.991913,394.066345 257.888245,396.999146 
	C255.945114,399.708160 254.456497,402.699768 254.341614,406.175049 
	C254.270157,408.336548 254.874741,410.148468 256.931732,411.159729 
	C259.117065,412.234100 260.927155,411.209869 262.274719,409.672791 
	C264.573975,407.049957 266.603607,404.192596 268.795197,401.473022 
	C270.359741,399.531525 271.888397,397.540070 273.635773,395.771179 
	C277.786743,391.569031 282.639954,389.532135 288.568085,391.597229 
	C294.397888,393.628052 297.998383,397.625824 299.117706,403.758392 
	C300.915009,413.605713 293.116028,430.794373 284.511749,436.076843 
	C280.200745,438.723511 279.299011,434.159821 276.731354,432.353729 
z"/>
<path fill="#000000" opacity="1.000000" stroke="none" 
	d="
M473.320007,277.758301 
	C469.992371,270.860382 470.901459,263.570465 470.008240,256.560791 
	C468.705566,246.338318 468.321075,236.002014 467.324463,225.735657 
	C466.985718,222.246353 468.185730,220.692886 471.614502,220.698349 
	C472.779785,220.700195 473.987152,220.804489 475.103088,220.547913 
	C479.344910,219.572708 480.158966,221.752991 480.391418,225.423889 
	C480.901733,233.482407 481.815643,241.515366 482.643646,250.405609 
	C491.384155,242.517136 496.327850,229.487091 511.568420,233.582611 
	C509.701355,237.901123 506.106476,240.938568 503.322784,244.484772 
	C496.589600,253.062332 496.782379,250.962341 503.816711,258.861694 
	C506.917267,262.343536 510.256378,265.611969 513.407288,269.050537 
	C514.590881,270.342163 516.283081,271.411194 516.131714,273.599548 
	C508.353668,276.122162 501.277771,276.628967 495.881256,268.727600 
	C494.067017,266.071259 491.628326,263.634949 488.678436,261.841125 
	C485.226440,263.569855 483.625793,266.332153 484.322784,269.985046 
	C485.386261,275.558929 483.386627,278.089294 477.670135,277.677521 
	C476.363861,277.583435 475.032562,277.837311 473.320007,277.758301 
z"/>
<path fill="#000000" opacity="1.000000" stroke="none" 
	d="
M717.901367,394.100281 
	C711.628967,384.719238 712.004944,386.743561 719.854797,381.154449 
	C723.782776,378.357635 727.843750,375.740723 731.689087,372.836639 
	C735.036804,370.308350 736.839844,367.182526 734.312561,362.944824 
	C731.939331,358.965637 727.467285,357.183746 723.160522,359.017639 
	C717.770569,361.312836 713.338989,365.222504 708.396790,368.277863 
	C706.568420,369.408173 704.718811,372.279541 702.376892,370.358368 
	C699.864136,368.297028 697.808105,365.445557 696.980713,362.154480 
	C696.543457,360.415344 698.411499,359.649719 699.590393,358.848267 
	C713.070312,349.683929 726.605591,340.600891 740.072083,331.417084 
	C742.379639,329.843445 743.990540,330.103546 745.410278,332.450165 
	C746.270508,333.872040 747.148804,335.296692 748.162720,336.609039 
	C750.038208,339.036377 749.444031,340.706665 746.960510,342.294250 
	C743.224365,344.682648 739.632324,347.296478 735.594238,350.079712 
	C739.571716,353.136841 743.320435,355.535217 745.626526,359.549652 
	C750.345337,367.764374 749.118835,376.088623 741.615051,381.728668 
	C735.505798,386.320648 729.029724,390.424164 722.725159,394.757233 
	C721.069153,395.895355 719.480835,396.625366 717.901367,394.100281 
z"/>
<path fill="#000000" opacity="1.000000" stroke="none" 
	d="
M769.361267,575.527222 
	C776.520386,581.897278 778.847656,589.473633 776.382751,598.316406 
	C773.955139,607.025269 768.522705,612.859131 759.377869,614.646729 
	C757.765930,614.961792 756.057617,615.066833 754.422058,614.930237 
	C745.733887,614.204468 744.737610,612.622864 747.528870,604.367432 
	C749.807007,597.629700 752.068848,590.886536 754.436890,583.851685 
	C750.988708,582.772827 749.120667,584.469849 747.434692,586.232544 
	C744.179321,589.636292 743.468811,593.924561 744.173645,598.333557 
	C744.655334,601.346802 743.765747,602.919983 741.020935,604.129944 
	C735.883240,606.394653 734.880615,605.991516 733.620483,600.368591 
	C731.708557,591.837341 736.436401,579.496399 743.472046,574.653625 
	C751.529602,569.107422 759.897461,569.316895 769.361267,575.527222 
M766.348816,596.591675 
	C767.093689,592.542908 767.151550,588.725952 762.503662,585.888367 
	C760.514465,591.441833 758.203430,596.541687 757.362305,602.291992 
	C762.435547,602.358276 763.165894,601.900574 766.348816,596.591675 
z"/>
<path fill="#000000" opacity="1.000000" stroke="none" 
	d="
M301.738159,620.809937 
	C300.099976,632.537476 294.565674,638.532898 283.588867,640.838928 
	C275.644409,642.507935 266.722809,638.416992 262.281586,631.068542 
	C256.891479,622.150085 257.056213,612.590698 262.729156,605.422363 
	C263.141541,604.901367 263.562378,604.382629 264.023041,603.905029 
	C271.205322,596.457825 273.913208,596.848633 278.250519,605.966370 
	C281.148285,612.057983 284.028473,618.157898 286.998627,624.427307 
	C292.268585,619.534180 291.107910,612.280029 284.677765,607.141785 
	C282.904083,605.724487 281.390533,604.734619 282.290771,601.922729 
	C284.327515,595.561035 286.498169,594.695129 291.671112,598.960571 
	C298.375122,604.488525 301.260925,611.909485 301.738159,620.809937 
M268.548187,618.794189 
	C269.648895,626.814819 272.927063,629.726440 279.368958,627.926147 
	C277.404755,622.892639 275.467133,617.928772 272.567413,613.481079 
	C269.671112,614.179626 269.288483,616.220520 268.548187,618.794189 
z"/>
<path fill="#000000" opacity="1.000000" stroke="none" 
	d="
M413.886993,743.175781 
	C416.651062,740.177185 414.246155,737.929504 412.480957,736.170776 
	C409.222626,732.924438 405.191711,730.923401 400.333405,731.788879 
	C395.486969,732.652161 396.248779,728.467773 395.209503,726.054016 
	C394.062103,723.389282 395.646790,722.148499 398.078430,721.394287 
	C407.552277,718.455811 422.572510,726.668579 426.517792,737.011536 
	C430.428680,747.264282 425.050385,759.495483 414.688965,763.912048 
	C406.725464,767.306519 396.190063,765.106873 389.738495,758.702881 
	C383.408447,752.419617 381.948792,744.078735 385.380920,735.732178 
	C386.768311,732.358154 388.405182,731.547180 391.799042,733.191711 
	C398.979218,736.671021 406.318329,739.822266 413.886993,743.175781 
M409.678680,750.395020 
	C405.146393,748.347778 400.835144,745.707764 395.806854,744.456360 
	C394.603363,748.979004 396.491791,751.528503 399.357239,753.494568 
	C402.269043,755.492493 405.508240,755.928345 408.701569,754.236816 
	C409.906036,753.598877 412.289307,752.985657 409.678680,750.395020 
z"/>
<path fill="#000000" opacity="1.000000" stroke="none" 
	d="
M405.787292,259.810730 
	C413.429688,262.181549 417.842102,267.139160 420.168396,274.654510 
	C411.729584,279.791046 402.667023,283.474792 393.936066,288.023468 
	C398.682556,293.059052 406.263306,291.899231 411.182709,285.797638 
	C414.108612,282.168610 417.512482,281.861633 421.044678,284.792297 
	C423.262146,286.632111 421.927612,288.418060 421.025848,290.105927 
	C415.928467,299.646759 400.555847,305.179779 390.541718,301.140961 
	C380.799072,297.211609 375.111603,285.401245 378.044342,275.189453 
	C381.157135,264.350769 393.287903,257.489441 405.787292,259.810730 
M390.617950,274.226013 
	C389.599304,276.118408 388.533081,278.007202 390.464630,280.680145 
	C395.486328,278.202911 400.503662,275.727844 405.848450,273.091217 
	C400.257812,268.076843 396.327545,268.415802 390.617950,274.226013 
z"/>
<path fill="#000000" opacity="1.000000" stroke="none" 
	d="
M750.128540,652.284424 
	C743.872742,656.679199 737.659302,656.546021 731.415222,653.372620 
	C726.223328,650.733887 721.132690,647.891357 716.043884,645.055359 
	C709.875977,641.618103 709.289246,635.990601 715.229309,631.959839 
	C717.447327,630.454834 717.878174,629.041870 718.210999,626.927429 
	C719.047424,621.612976 721.540161,617.161560 725.723999,613.792358 
	C729.866577,610.456238 734.498169,609.845886 739.269897,612.316101 
	C743.920166,614.723511 745.704834,618.740479 745.398682,623.908691 
	C745.101013,628.933472 742.632507,633.085388 740.406860,637.360840 
	C739.723511,638.673523 739.097839,640.016235 738.447327,641.342163 
	C744.972656,644.642944 748.735168,640.087097 751.146423,626.291626 
	C751.432861,626.132324 751.711182,625.860840 752.010071,625.835815 
	C761.213989,625.067566 762.172607,626.080017 760.080200,634.929749 
	C758.518066,641.536621 755.535217,647.419434 750.128540,652.284424 
M726.905884,627.697754 
	C725.583679,631.773376 725.261658,635.490417 730.201721,637.452148 
	C732.441772,635.977600 733.156860,633.669495 734.272644,631.696411 
	C735.686584,629.196228 737.087952,626.264282 734.005371,624.171631 
	C730.752380,621.963318 728.909058,624.614990 726.905884,627.697754 
z"/>
<path fill="#000000" opacity="1.000000" stroke="none" 
	d="
M421.006256,265.672119 
	C421.391724,253.140442 428.134338,245.162399 439.771515,242.975647 
	C449.789429,241.093170 458.986359,245.846191 463.108490,255.036362 
	C465.668793,260.744476 465.034821,262.175262 459.093536,263.870300 
	C451.653503,265.992950 444.202301,268.076385 436.586945,270.224457 
	C440.193909,276.028839 448.273651,276.401886 453.963684,270.890259 
	C456.850677,268.093719 458.771942,268.541901 461.633179,270.326233 
	C465.046173,272.454651 465.388428,274.531982 462.562866,277.402527 
	C455.266663,284.814911 446.354919,287.206238 436.520966,284.862915 
	C426.970306,282.587067 422.574341,275.354004 421.006256,265.672119 
M440.499695,253.136292 
	C436.199066,254.507706 433.565796,257.097443 433.689301,262.524170 
	C439.636200,261.033417 445.143219,259.835999 450.744995,257.584290 
	C448.296387,253.344070 445.123962,252.332474 440.499695,253.136292 
z"/>
<path fill="#000000" opacity="1.000000" stroke="none" 
	d="
M689.528564,722.064026 
	C683.725098,722.782837 679.251709,720.700745 675.587891,717.040405 
	C670.292236,711.749695 665.275940,706.180237 660.090088,700.778076 
	C658.281982,698.894592 657.854492,697.193298 660.066467,695.309143 
	C661.457520,694.124268 662.753296,692.818909 664.019409,691.498291 
	C665.958679,689.475464 667.596802,689.716370 669.439819,691.755310 
	C673.345093,696.075623 677.318604,700.340759 681.408508,704.486023 
	C686.277039,709.420471 690.124023,709.878540 693.939270,706.241577 
	C697.729431,702.628479 697.762695,697.666443 693.612854,692.894836 
	C689.157349,687.771912 684.407593,682.904907 679.989258,678.144897 
	C680.239929,677.280640 680.238037,676.882629 680.435242,676.665588 
	C688.135864,668.192871 688.151489,668.182495 695.877502,676.345398 
	C701.483459,682.268250 707.118164,688.166748 712.587097,694.214478 
	C714.131836,695.922729 717.623352,697.833862 715.738708,700.174133 
	C713.389099,703.091797 711.112976,707.403687 705.710571,706.291626 
	C703.044983,714.011047 698.228210,719.769287 689.528564,722.064026 
z"/>
<path fill="#000000" opacity="1.000000" stroke="none" 
	d="
M643.398560,315.690918 
	C638.931519,312.314484 635.908325,308.325104 635.943237,302.945221 
	C635.997314,294.603241 644.557617,289.416718 652.936829,292.370544 
	C656.600098,293.661926 659.653015,296.010193 662.865784,298.080963 
	C664.229370,298.959869 665.303650,300.425323 667.438110,300.165649 
	C669.997437,296.695312 668.088013,294.005493 665.537781,291.697540 
	C662.898987,289.309357 659.620483,287.898926 656.121216,287.370972 
	C651.713135,286.705963 652.675354,283.671082 653.026489,280.926544 
	C653.398376,278.019348 654.626160,276.590759 658.065613,277.298584 
	C664.971558,278.719757 671.000671,281.651703 675.939758,286.617767 
	C682.460388,293.174011 683.196655,301.086426 678.055725,308.801971 
	C674.272583,314.479553 670.164368,319.942322 666.441833,325.657715 
	C664.525574,328.599854 662.552002,329.097595 660.031128,326.763184 
	C657.901672,324.791168 653.856018,324.255157 654.781067,319.515991 
	C650.551697,319.905945 646.936340,318.412476 643.398560,315.690918 
M649.367981,303.086060 
	C646.737549,307.875610 650.298767,309.902283 653.591431,311.274109 
	C657.099060,312.735474 660.695679,312.519196 662.268066,308.005615 
	C656.717102,302.725372 654.130554,301.621002 649.367981,303.086060 
z"/>
<path fill="#000000" opacity="1.000000" stroke="none" 
	d="
M780.187744,463.661865 
	C793.466797,476.160736 790.557800,496.294159 774.980469,502.017212 
	C767.560364,504.743317 765.509949,503.434418 764.731323,495.631775 
	C764.104675,489.351349 763.357910,483.082947 762.679016,476.807648 
	C762.569275,475.792816 762.388123,474.839447 761.494507,474.208588 
	C755.710571,477.126648 754.613831,484.425598 759.004761,491.314484 
	C760.179504,493.157562 761.623230,494.518768 759.737244,496.971771 
	C755.730530,502.183044 753.322266,502.227081 749.725342,496.671295 
	C740.887146,483.019623 746.458923,464.616272 760.848877,460.428223 
	C767.554993,458.476562 774.029175,459.354156 780.187744,463.661865 
M777.601562,485.858215 
	C779.988953,478.380035 777.325439,473.209412 770.426636,472.895355 
	C770.833008,478.580902 771.295593,484.170990 772.719849,489.691498 
	C775.041565,489.340271 776.233765,488.021088 777.601562,485.858215 
z"/>
<path fill="#000000" opacity="1.000000" stroke="none" 
	d="
M740.537292,449.899048 
	C740.815247,447.112244 742.935486,447.067017 744.591614,446.524902 
	C749.811523,444.816101 755.086243,443.272186 760.290100,441.517242 
	C765.997681,439.592407 768.272888,436.474823 767.310547,432.246582 
	C766.055237,426.731140 762.151184,424.031555 756.019470,425.350403 
	C750.347473,426.570343 744.738647,428.305725 739.305054,430.353058 
	C733.337769,432.601440 733.701721,427.817810 732.388855,424.767639 
	C730.905273,421.321014 731.134155,419.018036 735.520264,417.776825 
	C744.966492,415.103638 754.245361,411.844055 763.648804,409.010651 
	C765.975952,408.309479 769.276672,405.612915 770.756531,408.671295 
	C772.427368,412.124298 775.686218,416.120636 772.019226,420.443390 
	C773.835999,422.501678 775.790039,424.300903 777.063599,426.707886 
	C783.142944,438.197662 779.371582,448.320129 767.162415,452.644318 
	C761.361145,454.699036 755.438049,456.409576 749.570496,458.277069 
	C743.481445,460.214966 743.431091,460.190643 741.656067,454.107025 
	C741.283386,452.829559 740.933777,451.545319 740.537292,449.899048 
z"/>
<path fill="#000000" opacity="1.000000" stroke="none" 
	d="
M633.081055,761.458984 
	C621.822815,765.634766 614.788269,763.059326 609.477905,752.958069 
	C606.459290,747.215942 603.749878,741.309021 600.652527,735.611450 
	C598.926514,732.436523 599.170227,730.375671 602.760620,729.063843 
	C604.157349,728.553406 605.482239,727.806335 606.771790,727.050964 
	C609.244751,725.602234 610.705933,726.441589 611.860596,728.876526 
	C614.426392,734.287598 617.032898,739.684631 619.813904,744.987061 
	C622.723755,750.535095 626.199280,752.030396 630.622864,749.964172 
	C635.243225,747.805908 637.145630,742.938477 634.936584,737.720337 
	C632.734131,732.517883 630.247864,727.415466 627.560059,722.445496 
	C625.732544,719.066101 625.990845,716.912781 629.871948,715.675537 
	C632.065613,714.976257 633.831970,713.182312 636.480957,713.067444 
	C639.410339,716.037781 640.648743,720.093994 642.555359,723.724976 
	C645.957947,730.204529 649.231934,736.757507 652.333252,743.385742 
	C653.297119,745.445679 656.242737,748.066223 653.753540,749.959229 
	C650.741516,752.249634 647.369751,755.689148 642.562378,753.019165 
	C639.787720,756.031616 637.272217,759.407776 633.081055,761.458984 
z"/>
<path fill="#000000" opacity="1.000000" stroke="none" 
	d="
M686.676270,329.944031 
	C685.851379,338.367157 688.492493,341.854706 696.267700,342.746033 
	C701.794250,343.379608 701.243469,348.210876 701.763123,351.464661 
	C702.365356,355.235352 698.442688,354.324158 696.255798,354.379425 
	C687.613281,354.597839 678.595520,347.413605 675.242859,337.924866 
	C672.198608,329.308960 674.941589,320.136719 682.299255,314.329437 
	C689.497375,308.648041 698.732605,308.339233 706.952087,313.464722 
	C713.858643,317.771545 718.274048,323.762390 718.755432,332.015717 
	C718.880432,334.157196 719.318665,337.407867 715.824219,338.030426 
	C712.456360,338.630432 707.175598,335.440308 706.805481,332.819519 
	C705.842773,326.002075 703.684692,323.076599 699.019165,322.264343 
	C693.801697,321.356018 690.095154,323.578857 686.676270,329.944031 
z"/>
<path fill="#000000" opacity="1.000000" stroke="none" 
	d="
M750.756592,528.670410 
	C766.603577,530.972656 782.041077,533.327698 797.501160,535.524170 
	C800.529236,535.954407 801.589539,537.312988 800.979126,540.196045 
	C800.772400,541.172729 800.411194,542.163696 800.445801,543.136536 
	C800.627869,548.265625 798.068481,549.154053 793.504456,548.371094 
	C783.183228,546.600403 772.778687,545.319458 762.444397,543.618591 
	C758.459656,542.962708 756.610046,544.013306 756.214722,548.264160 
	C755.677246,554.043579 754.487610,559.759216 753.730164,565.522217 
	C752.994202,571.122009 749.115234,568.124878 746.463074,568.228638 
	C743.610657,568.340088 742.165710,566.980408 742.652832,563.877014 
	C744.352600,553.048096 746.001221,542.210876 747.595093,531.365906 
	C747.850647,529.626892 748.401550,528.514343 750.756592,528.670410 
z"/>
<path fill="#000000" opacity="1.000000" stroke="none" 
	d="
M253.273911,587.235718 
	C258.663757,583.135376 263.774567,579.258972 269.392670,574.997803 
	C262.568268,572.832947 256.238068,572.609985 250.076996,571.530334 
	C240.725113,569.891296 239.822174,569.074768 239.246765,558.797424 
	C245.780945,558.419128 252.068542,560.265259 258.449036,560.926758 
	C265.222809,561.629150 271.940796,562.858093 278.693512,563.781250 
	C281.579407,564.175720 283.949219,565.143799 284.264313,568.425293 
	C284.600861,571.930298 288.453796,575.608948 284.148834,578.940552 
	C273.745148,586.991882 263.259155,594.937012 252.780411,602.890808 
	C252.305359,603.251404 251.576157,603.277161 251.014709,603.444214 
	C246.123978,595.060974 246.492096,592.279663 253.273911,587.235718 
z"/>
<path fill="#000000" opacity="1.000000" stroke="none" 
	d="
M711.676880,650.235352 
	C719.202820,656.016968 726.498779,661.507080 733.637146,667.195129 
	C735.402649,668.601990 739.165588,669.827087 737.574280,672.563354 
	C735.635315,675.897583 734.410217,681.013306 728.601318,680.177185 
	C728.212402,681.689331 727.866211,683.137268 727.467102,684.570435 
	C725.224915,692.621948 723.250732,693.191650 717.035156,687.812500 
	C715.108521,686.145081 714.564331,684.815125 716.036743,682.367126 
	C719.861023,676.009094 719.245667,672.998596 713.546448,668.249023 
	C710.104797,665.380920 706.680176,662.434875 702.938232,659.999817 
	C698.794617,657.303406 698.205627,654.936218 701.634094,651.004517 
	C706.050598,645.939819 705.786682,645.709717 711.676880,650.235352 
z"/>
<path fill="#000000" opacity="1.000000" stroke="none" 
	d="
M652.696533,724.263062 
	C649.666443,719.873352 646.934326,715.708374 643.966370,711.718811 
	C641.880798,708.915527 642.281433,706.977112 645.296326,705.327393 
	C646.744995,704.534668 648.087952,703.536621 649.429993,702.564026 
	C651.324280,701.191162 652.779846,701.648682 654.037415,703.473755 
	C660.718628,713.169739 667.411865,722.857544 674.104675,732.545593 
	C675.191833,734.119263 675.486206,735.601074 673.560486,736.749512 
	C670.887207,738.343933 668.744324,740.807434 665.098999,741.889343 
	C661.059143,736.154297 656.976379,730.358459 652.696533,724.263062 
z"/>
<path fill="#000000" opacity="1.000000" stroke="none" 
	d="
M760.783203,397.833771 
	C751.007812,402.572418 741.452881,406.915894 732.178101,411.792297 
	C727.578857,414.210480 726.048645,412.073944 724.396729,408.402039 
	C722.883850,405.039154 721.146851,402.348022 726.193115,400.114532 
	C736.080261,395.738464 745.765991,390.897949 755.450806,386.080231 
	C758.371338,384.627472 760.346741,385.053711 761.155273,388.165253 
	C761.961914,391.269958 767.193115,394.549622 760.783203,397.833771 
z"/>
<path fill="#000000" opacity="1.000000" stroke="none" 
	d="
M270.002777,531.188110 
	C263.990753,529.501160 261.567657,526.235474 262.545593,521.681274 
	C263.455688,517.442810 267.067169,515.002930 271.467224,515.777283 
	C275.434387,516.475586 277.726318,519.154602 277.923157,522.932617 
	C278.180634,527.874512 275.085144,530.409302 270.002777,531.188110 
z"/>
<path fill="#000000" opacity="1.000000" stroke="none" 
	d="
M515.513306,757.063599 
	C513.881531,752.359497 514.702026,748.656189 518.939758,746.511658 
	C522.431396,744.744629 525.792175,745.464966 528.319458,748.608398 
	C531.013855,751.959595 530.531494,756.614380 527.340027,759.372620 
	C523.836792,762.400146 519.490784,761.674988 515.513306,757.063599 
z"/>
<path fill="#000000" opacity="1.000000" stroke="none" 
	d="
M536.215332,272.408752 
	C536.026672,266.222778 538.130676,263.216583 542.621826,262.692871 
	C546.872864,262.197205 550.506104,264.590332 551.233154,268.365051 
	C552.043396,272.571442 549.875854,276.573181 545.841370,277.745056 
	C541.221069,279.087097 538.265625,276.827148 536.215332,272.408752 
z"/>
<path fill="#000000" opacity="1.000000" stroke="none" 
	d="
M672.335754,743.359375 
	C675.498535,741.007080 678.524963,739.927551 681.778503,742.158203 
	C684.099182,743.749329 685.577881,745.999451 685.024353,748.909485 
	C684.385010,752.270264 682.067505,754.308289 678.949585,755.543152 
	C675.907959,756.747864 673.346313,755.944580 671.437561,753.497437 
	C668.804993,750.122253 669.262512,746.755493 672.335754,743.359375 
z"/>
<path fill="#000000" opacity="1.000000" stroke="none" 
	d="
M766.260925,380.822876 
	C770.994812,375.859375 776.074280,376.305298 778.893250,381.587524 
	C780.407959,384.426025 780.604858,387.291687 778.561401,389.961670 
	C776.914185,392.113770 774.579468,392.932007 771.967163,392.431458 
	C768.740845,391.813202 766.786987,389.622162 765.919983,386.552246 
	C765.424377,384.797577 765.501221,382.956207 766.260925,380.822876 
z"/>
</svg>