<svg xmlns="http://www.w3.org/2000/svg" viewBox="0 0 48 48" width="48px" height="48px">
    <path fill="#00aff0" d="M24 2C12.972 2 4 10.972 4 22c0 6.75 4.687 12.499 11.015 14.797-.085.729-.177 1.465-.271 2.198-.1.792.361 1.494 1.129 1.65 5.005.985 10.22 1.5 15.127 1.5C35.027 42 44 33.027 44 22 44 10.972 35.027 2 24 2zm-.192 31.809c-3.854 0-7.345-1.304-10.041-3.474a.793.793 0 0 1-.263-1.038.78.78 0 0 1 1.033-.264c2.437 1.702 5.441 2.635 8.526 2.635 2.317 0 4.482-.481 6.269-1.377 1.838-.916 2.845-2.247 2.845-3.627 0-1.203-.764-2.323-2.144-2.924-2.22-.996-5.228-1.252-7.631-1.466-2.062-.185-3.994-.565-5.524-1.276-1.828-.835-2.939-2.218-3.232-3.732-.313-1.605.111-3.23 1.161-4.519 1.458-1.791 3.941-2.74 6.867-2.74 2.666 0 5.318.806 7.489 2.212a.787.787 0 0 1 .254 1.039.795.795 0 0 1-1.038.255c-1.994-1.315-4.42-2.001-6.705-2.001-2.113 0-4.009.686-5.309 1.874-1.027.975-1.441 2.287-1.203 3.453.249 1.294 1.191 2.328 2.647 2.919 1.873.739 4.132.985 6.277 1.189 1.894.17 3.686.384 5.108.976 1.786.799 3.09 2.093 3.43 3.588.43 1.818-.198 3.617-1.704 4.94-1.66 1.468-4.124 2.344-6.881 2.344z"/>
</svg>
